<?xml version="1.0" encoding="UTF-8"?><svg id="a" xmlns="http://www.w3.org/2000/svg" viewBox="0 0 399.6 400"><defs><style>.b{fill:#403f45;}.c{fill:#825a22;}.d{fill:#3c3c45;}.e{fill:#cf942e;}.f{fill:none;stroke:#3d3d45;stroke-linecap:round;stroke-linejoin:round;stroke-width:10.41px;}.g{fill:#453723;}.h{fill:#3d3d45;}.i{fill:#f7f7f8;}.j{fill:#d4ad7f;}.k{fill:#ab7f66;}</style></defs><path class="e" d="M385,188.94c5.32,45.54-12.54,87.04-38.25,123.17-5.76,8.09-14.68,12.6-14.44,23.78.81.75,1.62,1.5,2.43,2.25l1.19,1.13c-75.49,73.9-196.33,74.02-271.96.28l.79-1.41c3.2-3.09,6.42-6.16,9.61-9.26.2-.19.4-.39.6-.58,3.8-3.67,7.62-7.32,11.42-10.99l1.67-1.62c103.12,99.45,285.77,19.96,272.47-124.99l2.25.03c7.41-.58,14.82-1.23,22.23-1.8Z"/><path class="e" d="M51.73,134.12c-.85,1.28-.65,2.86-.92,4.35-3.08,16.86-9.72,36.4-11.51,52.87l-2.59.2c-7.42-.83-14.83-1.64-22.25-2.47-2.2-.25-4.39-.49-6.59-.73l-2.28-.29c1.75-27.87,9.32-54.01,22.17-78.76.71-1.37.91-3.12,2.7-4.15,3.71,11.49,10.78,22.53,21.27,28.98Z"/><path class="e" d="M392.41,188.34c-2.47.19-4.94.41-7.41.6-7.41.57-14.82,1.23-22.23,1.8l-2.25-.03c-1.66-18.12-9.49-37.19-13.09-55.09l-.08-.08.08.08c.25-.15.44-.4.7-.56,3.71-2.37,10.89-11.02,13.69-14.82.2-.28.44-.52.64-.8,3.09-4.28,5.29-7.75,6.96-12.78.16-.49.15-1.03.29-1.52-.14.49-.13,1.04-.29,1.52l2.25,2.28c12.92,24.3,20.55,51.26,22.33,78.72l-1.57.68Z"/><path class="e" d="M392.41,188.34l1.63.19c3.39,56.28-17.82,111.32-58.12,150.76l-1.19-1.13c-.81-.75-1.62-1.5-2.43-2.25-.24-11.18,8.68-15.69,14.44-23.78,25.72-36.14,43.58-77.64,38.25-123.17,2.47-.19,4.94-.41,7.41-.6Z"/><path class="i" d="M14.46,189.08c-3.14,39.93,8.77,81.93,31.06,115.03,2.13,3.16,17.7,23.1,19.63,23.63,2.54.7,7.03-.89,9.81.58-.2.19-.4.39-.6.58-3.2,3.09-6.41,6.17-9.61,9.26l-1.41.8C23.14,299.42,2.06,244.33,5.59,188.06l2.28.29c2.2.25,4.39.49,6.59.73Z"/><path class="e" d="M35.47,194.91c-4.82,44.28,17.22,93.96,48.75,124.36l-1.67,1.62c-3.8,3.67-7.62,7.32-11.42,10.99-.2.19-.4.39-.6.58.2-.19.4-.39.6-.58-2.78-1.47-7.27.13-9.81-.58-1.93-.53-17.5-20.47-19.63-23.63-22.29-33.1-34.2-75.1-31.06-115.03,7.42.83,14.83,1.64,22.25,2.47l2.59-.2Z"/><path class="e" d="M336.24,59.35c-.69,10.16,2.34,22.88.09,32.86-7.41,1.78-7.96-3.08-11.95-6.49-2.45-2.09-4.9-4.16-7.34-6.26-3.95-3.38-6.18-8.34-12.75-6.49-.27-4.41.6-10.27-1.12-14.42-5.6-13.5-22.51-14.84-30.04-1.86-.14.23-.34.43-.46.66.12-.23.33-.43.46-.66-1.2-1.03-2.85-1.18-4.17-1.8-38.43-17.92-76.23-21.05-116.88-8.84-4.28,1.28-22.15,10.04-23.41,9.89h0c-.24-.03-.46-.47-.78-.54-4.17-.97-8.23-8.55-16.67-7.91-14.53,1.11-15.24,13.68-16.02,24.67-4.21-3.19-5.9,1.55-8.81,4.01-2.74,2.31-5.29,4.87-8.01,7.21-4.22,3.63-8.82,10.03-14.42,8.81-1.81-9.04-.93-25.36,1.56-34.24l.31-.92.77-.49c89.9-71.26,176.17-65.79,265.63.52,1.2.89,2.51,1.91,4.01,2.27Z"/><path class="k" d="M65.82,57.05l-.31.92c-2.5,8.88-3.37,25.19-1.56,34.24s7.93,18.32,18.43,17.3c18.99-1.83,11.93-24.86,12.82-37.33.78-11,1.49-23.56,16.02-24.67,8.43-.64,12.5,6.94,16.67,7.91.32.07.53.52.78.54h0l.03.94c1.96,11.29-6.86,47.76,9.77,49.73,18.54,2.2,3.85-26.25,22.43-30.6,22.94-5.37,14.95,38.99,17.62,50.63l-.24,1.76c-9.28,3.51-17.58,9.25-24.15,16.69l-2.05-.82c-20.47-6.7-46-1.89-68.1-3.2,1.1-9.12-1.62-5.25-6.01-7.21-28.14-12.53-35.33-33.82-33.25-63.69l-16.82.4c.5-11.99-2.57-22.01,11.22-28.36,12.01-5.53,22.41,4.16,26.71,14.83Z"/><path class="g" d="M83.98,141.08c-11.45-.68-21.84-.56-32.25-6.95s-17.56-17.49-21.27-28.98c-3.3-10.25-3.02-23.78-2.57-34.57l16.82-.4c-2.08,29.87,5.11,51.16,33.25,63.69,4.39,1.96,7.11-1.91,6.01,7.21Z"/><path class="j" d="M371.58,85.8c-.43,6.18-.18,13.35-1.89,19.34-.14.49-.13,1.04-.29,1.52-1.66,5.03-3.87,8.5-6.96,12.78-.2.28-.44.53-.64.8-24.23-.29-10.03-11.3-7.85-24.43.63-3.77-1.24-15.2,1.2-17.22,11.49-4.4,6.74,9.96,16.42,7.21Z"/><path class="k" d="M371.58,85.8c-9.69,2.75-4.93-11.61-16.42-7.21-2.44,2.02-.58,13.45-1.2,17.22-2.18,13.13-16.38,24.15,7.85,24.43.2-.28.44-.52.64-.8-.2.28-.44.53-.64.8-2.8,3.8-9.98,12.45-13.69,14.82-.25.16-.44.41-.7.56l-.08-.08.08.08c-.26.16-.64.14-.91.3-22.54,12.92-73.86-.98-99.11,7.56l-2.09,1.15c-6.46-7.32-15.17-13.08-24.32-16.44l-.02-1.54c4.32-12.07-6.29-53.49,16.02-51.27,20.75,2.07,5.55,32.48,24.03,31.24,18.48-1.24,5.2-36.98,11.64-49.27.12-.23.33-.43.46-.66,7.53-12.98,24.43-11.64,30.04,1.86,1.72,4.15.85,10.01,1.12,14.42.75,12.23-4.55,36.95,15.22,36.85,10.04-.05,14.88-9.01,16.82-17.62,2.25-9.98-.78-22.7-.09-32.86,1.49-21.95,26.5-24.76,34.54-7.2,2.25,4.91,1.26,27.05.8,33.65Z"/><path class="j" d="M322.31,120.25c13.66-.77,7.86,18.59-2.4,13.62-5.54-2.68-4.97-13.21,2.4-13.62Z"/><path class="k" d="M220.97,126.66l.02,1.54c9.15,3.36,17.86,9.12,24.32,16.44,5.33,6.04,8.59,12.27,11.8,19.58l.38.79,1.06.34c1.21,6.54,1.72,13.1,2.2,19.72.29,4.04.33,8.11.57,12.16l-6.7.34c2.22-82.53-115.47-79.86-109.75,3.2l-6.46.58c.06-5.13.55-10.42-.27-15.51l-.49-.11.49.11.68-.85c.1-7.21,1.37-14.18,3.91-20.94s6.45-13.35,11.4-18.95c6.57-7.43,14.87-13.17,24.15-16.69,13.48-5.11,28.35-5.29,41.95-.5l.75-1.26Z"/><path class="k" d="M260.75,185.06c-.48-6.62-.99-13.17-2.2-19.72l-1.06-.34-.38-.79,1.2-.52c.33-2.37,2.61-1.23,4.11-1.23,6.27-.03,20.61-.44,25.84,1.53,23.05,8.7,21.55,37.03-5.61,30.28-5.75-1.43-12.57-5.04-18.07-7.58-1.28-.59-2.36-1.52-3.84-1.63Z"/><path class="k" d="M142.72,164.05c-2.54,6.76-3.81,13.73-3.91,20.94l-.68.85-.49-.11c-9.97,5.89-44.44,19.41-42.45-3.79,1.73-20.23,31.03-21.82,45.66-17.62l1.87-.26Z"/><path class="k" d="M265.51,263.65c10.15,37.79-25.2,58-58.16,59.92.38-1.87-.65-5.54.4-7.05.55-.8,14.35-5.89,17.62-8.01,9.18-5.94,22.12-19.87,27.64-29.24,3.95-6.71,3.81-18.2,12.5-15.62Z"/><path class="k" d="M190.53,323.41c-33.12-2.45-66.85-24.01-55.76-61.37,8.09-2.19,7.89,10.52,10.9,16.42,5.65,11.1,18.62,25.09,29.24,31.64,6.56,4.05,18.26,3.78,15.62,13.3Z"/><path class="c" d="M260.13,251.6c-.17-.23-.31-.48-.48-.71-9,3.46-16.23-7.08-25.45-10.48-20.33-7.48-52.05-6.15-72.1,1.6-2.46.95-11.52,8.01-13.22,6.01v-6.33c28.77-21.92,87.72-21.48,110.78,9.2.17.23.32.48.48.71Z"/><path class="k" d="M261.32,197.22c1.16,19.7,1.84,39.46,2.76,59.18l-1.16.11c-.85-1.67-1.69-3.38-2.79-4.9-.17-.23-.31-.48-.48-.71-23.05-30.68-82.01-31.12-110.78-9.2-5.28,4.03-6.84,5.21-10.19,11.01l-.99-.31c-.1-17,.5-34.06.71-51.07l6.46-.58c-5.72-83.06,111.98-85.73,109.75-3.2l6.7-.34Z"/><path class="b" d="M170.9,173.92c17.34-2.48,17.27,21.01,4.01,22.43s-16.83-20.6-4.01-22.43Z"/><path class="b" d="M222.97,173.92c17.11-2.42,17.23,20.94,4.01,22.43-14.16,1.6-16.83-20.62-4.01-22.43Z"/><path class="c" d="M260.13,251.6c1.1,1.53,1.94,3.24,2.79,4.9.32.63.57,1.28.85,1.93.19.44.3.77.47,1.21.48,1.26.93,2.69,1.28,4.01-8.69-2.57-8.55,8.91-12.5,15.62-5.52,9.37-18.46,23.3-27.64,29.24-3.27,2.12-17.07,7.22-17.62,8.01-1.05,1.51-.02,5.18-.4,7.05-5.62.33-11.21.25-16.82-.16,2.64-9.52-9.06-9.25-15.62-13.3-10.62-6.56-23.59-20.54-29.24-31.64-3-5.9-2.81-18.61-10.9-16.42.75-2.54,1.58-4.79,2.77-7.16l.12-.05c.5-.54.03-1.07.02-1.62,0-.27.01-.54.01-.81l.99.31c3.36-5.8,4.91-6.99,10.19-11.01v6.33c1.7,2,10.76-5.06,13.22-6.01,20.05-7.75,51.77-9.08,72.1-1.6,9.22,3.39,16.46,13.93,25.45,10.48.17.23.32.48.48.71Z"/><path class="b" d="M170.9,254.04c11.89-2.76,10.49,20.65-.8,16.82-4.39-1.49-5.09-15.46.8-16.82Z"/><path class="b" d="M224.57,254.04c9.8-2.06,11.48,14.07,2.4,17.62-8.29-.44-8.86-16.27-2.4-17.62Z"/><path class="f" d="M332.23,57.08C242.76-9.23,156.49-14.7,66.6,56.56l-.77.49"/><path class="f" d="M220.97,126.66c4.32-12.07-6.29-53.49,16.02-51.27,20.75,2.07,5.55,32.48,24.03,31.24,18.48-1.24,5.2-36.98,11.64-49.27.12-.23.33-.43.46-.66,7.53-12.98,24.43-11.64,30.04,1.86,1.72,4.15.85,10.01,1.12,14.42.75,12.23-4.55,36.95,15.22,36.85,10.04-.05,14.88-9.01,16.82-17.62,2.25-9.98-.78-22.7-.09-32.86,1.49-21.95,26.5-24.76,34.54-7.2,2.25,4.91,1.26,27.05.8,33.65-.43,6.18-.18,13.35-1.89,19.34-.14.49-.13,1.04-.29,1.52-1.66,5.03-3.87,8.5-6.96,12.78-.2.28-.44.53-.64.8-2.8,3.8-9.98,12.45-13.69,14.82l-.78.48-.83.38c-22.54,12.92-73.86-.98-99.11,7.56"/><path class="f" d="M128.66,55.96l-.78-.54c-4.17-.97-8.23-8.55-16.67-7.91-14.53,1.11-15.24,13.68-16.02,24.67-.89,12.47,6.18,35.5-12.82,37.33-10.49,1.01-16.58-8.07-18.43-17.3s-.93-25.36,1.56-34.24l.31-.92"/><path class="f" d="M65.82,57.05c-4.3-10.67-14.7-20.36-26.71-14.83-13.79,6.35-10.71,16.37-11.22,28.36-.45,10.79-.74,24.32,2.57,34.57,3.71,11.49,10.78,22.53,21.27,28.98s20.8,6.27,32.25,6.95c22.09,1.31,47.63-3.5,68.1,3.2"/><path class="f" d="M268.96,54.91c-38.43-17.92-76.23-21.05-116.88-8.84-4.28,1.28-22.15,10.04-23.41,9.89"/><path class="f" d="M128.66,55.96l.03.94c1.96,11.29-6.86,47.76,9.77,49.73,18.54,2.2,3.85-26.25,22.43-30.6,22.94-5.37,14.95,38.99,17.62,50.63"/><path class="f" d="M7.87,188.34c2.2.25,4.39.49,6.59.73,7.42.83,14.83,1.64,22.25,2.47"/><path class="f" d="M392.41,188.34c-2.47.19-4.94.41-7.41.6-7.41.57-14.82,1.23-22.23,1.8"/><path class="f" d="M50.81,138.48c-3.08,16.86-9.72,36.4-11.51,52.87-4.82,44.28,17.22,93.96,48.75,124.36,103.12,99.45,285.77,19.96,272.47-124.99-1.66-18.12-9.49-37.19-13.09-55.09"/><path class="f" d="M264.59,186.69c5.5,2.54,12.32,6.15,18.07,7.58,27.15,6.75,28.65-21.59,5.61-30.28-5.23-1.97-19.57-1.56-25.84-1.53-1.5,0-3.78-1.13-4.11,1.23l.24,1.65c1.21,6.54,1.72,13.1,2.2,19.72.29,4.04.33,8.11.57,12.16,1.16,19.7,1.84,39.46,2.76,59.18l.15,3.24"/><path class="f" d="M140.86,164.31c-14.64-4.2-43.93-2.6-45.66,17.62-1.99,23.2,32.48,9.68,42.45,3.79l.49.11c.82,5.08.33,10.37.27,15.51-.21,17.01-.81,34.07-.71,51.07,0,.27-.02.54-.01.81l-.02,1.62"/><path class="f" d="M264.23,259.64l-.47-1.21c-.28-.64-.53-1.3-.85-1.93-.85-1.67-1.69-3.38-2.79-4.9-.17-.23-.31-.48-.48-.71-23.05-30.68-82.01-31.12-110.78-9.2-5.28,4.03-6.84,5.21-10.19,11.01-.41.7-.78,1.44-1.14,2.17-1.19,2.38-2.02,4.63-2.77,7.16-11.09,37.36,22.64,58.92,55.76,61.37,5.61.41,11.21.49,16.82.16,32.96-1.93,68.31-22.13,58.16-59.92-.35-1.31-.8-2.74-1.28-4.01h0Z"/><path class="f" d="M86.38,317.33c-3.8,3.67-7.62,7.32-11.42,10.99-.2.19-.4.39-.6.58-3.2,3.09-6.41,6.17-9.61,9.26"/><path class="f" d="M312.3,317.33c6.66,6.2,13.34,12.38,20.01,18.58.81.75,1.62,1.5,2.43,2.25"/><path class="f" d="M27.76,109.29c-12.85,24.76-20.42,50.89-22.17,78.76-3.53,56.27,17.55,111.36,57.75,150.9.21.2.41.41.62.61,75.64,73.74,196.47,73.63,271.96-.28,40.29-39.44,61.51-94.48,58.12-150.76-.02-.29-.04-.58-.05-.87-1.78-27.46-9.41-54.42-22.33-78.72"/><path class="f" d="M257.49,165l-.38-.79c-3.21-7.31-6.47-13.53-11.8-19.58-6.46-7.32-15.17-13.08-24.32-16.44-.26-.09-.52-.19-.77-.28-13.6-4.79-28.46-4.61-41.95.5-9.28,3.51-17.58,9.25-24.15,16.69-4.95,5.6-8.77,11.95-11.4,18.95s-3.81,13.73-3.91,20.94c-.01.82,0,1.65.02,2.47"/><path class="h" d="M89.74,80.17c-2.52,2.12-5.05,4.65-7.97,7.17-3.05,2.71-8.39,7.08-10.53,9.73-.1-.04-.19-.11-.28-.22-1.64-2.63-2-9.03-1.79-11.44.16-1,.7-1.26,2-2.59,4.02-3.54,7.54-6.82,11.87-10.63,2.17-1.96,4.66-3.93,6.34-6.15,1.78-.05,1.55,12.97,1.16,13.24-.17.28-.57.65-.79.88h0Z"/><path class="d" d="M175.56,284.95c6.19,7.99,15.65,13.19,25.8,12.41,10.15-.68,19.43-6.67,25.72-14.61,3.75-4.45,10.4.81,6.89,5.49-7.76,9.77-19.26,17.06-32.03,17.91-15.4,1.02-27.19-7.15-35.99-18.94-.67-2.19,1.06-6.03,3.25-6.58.42-.12.86-.04,1.31.16,1.82.88,3.55,2.7,5.04,4.16h0Z"/><path class="h" d="M320.43,75.51c2.46,2.08,8.74,7.41,10.9,9.54.39,5.36.07,9.35-2.94,13.85-2.11-3.28-4.69-6.36-7.37-9.21-2.93-2.46-8.83-7.47-11.41-10.18-.17.1-.86,1.37-1.31.44-.18-.95-.5-12.51.44-15.26,2.21,2.05,8.76,8.08,11.7,10.82h0Z"/></svg>